<svg width="22" height="22" viewBox="0 0 22 22" fill="none" xmlns="http://www.w3.org/2000/svg">
<path fill-rule="evenodd" clip-rule="evenodd" d="M11.0282 0.166687C5.06011 0.166687 0.223022 5.00377 0.223022 10.9719C0.223022 15.745 3.31811 19.7956 7.61244 21.2256C8.15302 21.3231 8.34802 20.9905 8.34802 20.7045C8.34802 20.4478 8.33936 19.7674 8.33611 18.8672C5.32986 19.5194 4.69502 17.4177 4.69502 17.4177C4.20536 16.1697 3.49577 15.8371 3.49577 15.8371C2.51536 15.1665 3.57052 15.1817 3.57052 15.1817C4.65602 15.2575 5.22477 16.2954 5.22477 16.2954C6.18894 17.9464 7.75544 17.4697 8.36861 17.1934C8.46719 16.4947 8.74886 16.018 9.05652 15.7483C6.65802 15.4764 4.13602 14.549 4.13602 10.4074C4.13602 9.22986 4.55744 8.26352 5.24536 7.50952C5.13594 7.23544 4.76219 6.13586 5.35261 4.64952C5.35261 4.64952 6.25936 4.3581 8.32311 5.75561C9.2045 5.51583 10.1137 5.39344 11.0271 5.3916C11.9406 5.39309 12.8498 5.51548 13.7311 5.75561C15.7959 4.35702 16.7016 4.64952 16.7016 4.64952C17.292 6.13586 16.9215 7.23544 16.8089 7.50952C17.5022 8.26352 17.9182 9.22877 17.9182 10.4074C17.9182 14.5599 15.394 15.472 12.9869 15.7396C13.3714 16.0733 13.7181 16.7319 13.7181 17.7394C13.7181 19.1846 13.7051 20.3503 13.7051 20.7045C13.7051 20.9938 13.8979 21.3296 14.4494 21.2234C18.7415 19.7913 21.8334 15.7439 21.8334 10.9719C21.8334 5.00377 16.9963 0.166687 11.0282 0.166687Z" fill="#D3E97A"/>
</svg>
